<mxfile host="app.diagrams.net" agent="Mozilla/5.0 (Windows NT 10.0; Win64; x64) AppleWebKit/537.36 (KHTML, like Gecko) Chrome/131.0.0.0 Safari/537.36 Edg/131.0.0.0" version="26.0.6">
  <diagram name="PÃ¡gina-1" id="ByPnyzdSTrtcEhe8VtN3">
    <mxGraphModel dx="2253" dy="781" grid="1" gridSize="10" guides="1" tooltips="1" connect="1" arrows="1" fold="1" page="1" pageScale="1" pageWidth="827" pageHeight="1169" background="#ffffff" math="0" shadow="0">
      <root>
        <mxCell id="0" />
        <mxCell id="1" parent="0" />
        <mxCell id="K6Pyr4SFYFlHtut3ddDA-1" value="Home router&lt;div&gt;192.168.1.1&lt;/div&gt;" style="verticalLabelPosition=bottom;sketch=0;aspect=fixed;html=1;verticalAlign=top;strokeColor=none;align=center;outlineConnect=0;shape=mxgraph.citrix.router;" parent="1" vertex="1">
          <mxGeometry x="229.35000000000002" y="236.75" width="55" height="36.5" as="geometry" />
        </mxCell>
        <mxCell id="K6Pyr4SFYFlHtut3ddDA-3" value="" style="verticalLabelPosition=bottom;html=1;verticalAlign=top;align=center;strokeColor=none;fillColor=#00BEF2;shape=mxgraph.azure.mobile;pointerEvents=1;" parent="1" vertex="1">
          <mxGeometry x="194.35000000000002" y="416.75" width="35" height="50" as="geometry" />
        </mxCell>
        <mxCell id="K6Pyr4SFYFlHtut3ddDA-4" value="" style="image;points=[];aspect=fixed;html=1;align=center;shadow=0;dashed=0;image=img/lib/allied_telesis/computer_and_terminals/Laptop.svg;" parent="1" vertex="1">
          <mxGeometry x="84.99000000000001" y="364.15" width="51.86" height="52.6" as="geometry" />
        </mxCell>
        <mxCell id="rJXVXiWx6eMoC_5AmnGX-2" value="" style="verticalLabelPosition=bottom;sketch=0;aspect=fixed;html=1;verticalAlign=top;strokeColor=none;align=center;outlineConnect=0;shape=mxgraph.citrix.printer;" parent="1" vertex="1">
          <mxGeometry x="320" y="396.75" width="60" height="60" as="geometry" />
        </mxCell>
        <mxCell id="rJXVXiWx6eMoC_5AmnGX-3" value="" style="image;html=1;image=img/lib/clip_art/computers/Server_Tower_128x128.png" parent="1" vertex="1">
          <mxGeometry x="20" y="273.25" width="50" height="70" as="geometry" />
        </mxCell>
        <mxCell id="rJXVXiWx6eMoC_5AmnGX-6" style="edgeStyle=orthogonalEdgeStyle;rounded=0;orthogonalLoop=1;jettySize=auto;html=1;endArrow=none;endFill=0;" parent="1" source="rJXVXiWx6eMoC_5AmnGX-4" target="K6Pyr4SFYFlHtut3ddDA-1" edge="1">
          <mxGeometry relative="1" as="geometry" />
        </mxCell>
        <mxCell id="PfqUwRSOz3h14KbHQ9jz-17" value="Text" style="edgeLabel;html=1;align=center;verticalAlign=middle;resizable=0;points=[];" vertex="1" connectable="0" parent="rJXVXiWx6eMoC_5AmnGX-6">
          <mxGeometry x="0.8743" relative="1" as="geometry">
            <mxPoint as="offset" />
          </mxGeometry>
        </mxCell>
        <mxCell id="rJXVXiWx6eMoC_5AmnGX-4" value="&lt;span&gt;&lt;font style=&quot;font-size: 8px;&quot;&gt;192.168.1.283&lt;/font&gt;&lt;/span&gt;" style="sketch=0;pointerEvents=1;shadow=0;dashed=0;html=1;strokeColor=none;fillColor=#434445;aspect=fixed;labelPosition=center;verticalLabelPosition=bottom;verticalAlign=top;align=center;outlineConnect=0;shape=mxgraph.vvd.ethernet_port;direction=south;" parent="1" vertex="1">
          <mxGeometry x="71.75" y="316.75" width="20" height="20" as="geometry" />
        </mxCell>
        <mxCell id="PfqUwRSOz3h14KbHQ9jz-14" style="edgeStyle=orthogonalEdgeStyle;rounded=0;orthogonalLoop=1;jettySize=auto;html=1;" edge="1" parent="1" source="rJXVXiWx6eMoC_5AmnGX-10">
          <mxGeometry relative="1" as="geometry">
            <mxPoint x="600" y="141.75" as="targetPoint" />
          </mxGeometry>
        </mxCell>
        <mxCell id="rJXVXiWx6eMoC_5AmnGX-10" value="Internet" style="ellipse;shape=cloud;whiteSpace=wrap;html=1;" parent="1" vertex="1">
          <mxGeometry x="166.85000000000002" y="76.75" width="180" height="130" as="geometry" />
        </mxCell>
        <mxCell id="rJXVXiWx6eMoC_5AmnGX-12" style="edgeStyle=orthogonalEdgeStyle;rounded=0;orthogonalLoop=1;jettySize=auto;html=1;entryX=0.499;entryY=0.955;entryDx=0;entryDy=0;entryPerimeter=0;startArrow=classic;startFill=1;endArrow=classic;endFill=1;" parent="1" source="K6Pyr4SFYFlHtut3ddDA-1" target="rJXVXiWx6eMoC_5AmnGX-10" edge="1">
          <mxGeometry relative="1" as="geometry" />
        </mxCell>
        <mxCell id="rJXVXiWx6eMoC_5AmnGX-17" value="&lt;font style=&quot;font-size: 8px;&quot;&gt;192.168.1.142&lt;/font&gt;" style="sketch=0;pointerEvents=1;shadow=0;dashed=0;html=1;strokeColor=none;fillColor=#434445;aspect=fixed;labelPosition=center;verticalLabelPosition=bottom;verticalAlign=top;align=left;outlineConnect=0;shape=mxgraph.vvd.wi_fi;" parent="1" vertex="1">
          <mxGeometry x="70" y="266.75" width="23.5" height="23.5" as="geometry" />
        </mxCell>
        <mxCell id="rJXVXiWx6eMoC_5AmnGX-18" value="&lt;font style=&quot;font-size: 8px;&quot;&gt;192.168.1.15&lt;/font&gt;" style="sketch=0;pointerEvents=1;shadow=0;dashed=0;html=1;strokeColor=none;fillColor=#434445;aspect=fixed;labelPosition=center;verticalLabelPosition=bottom;verticalAlign=top;align=left;outlineConnect=0;shape=mxgraph.vvd.wi_fi;" parent="1" vertex="1">
          <mxGeometry x="136.85000000000002" y="356.75" width="23.5" height="23.5" as="geometry" />
        </mxCell>
        <mxCell id="rJXVXiWx6eMoC_5AmnGX-19" value="&lt;font style=&quot;font-size: 8px;&quot;&gt;192.168.1.240&lt;/font&gt;" style="sketch=0;pointerEvents=1;shadow=0;dashed=0;html=1;strokeColor=none;fillColor=#434445;aspect=fixed;labelPosition=center;verticalLabelPosition=bottom;verticalAlign=top;align=left;outlineConnect=0;shape=mxgraph.vvd.wi_fi;" parent="1" vertex="1">
          <mxGeometry x="230" y="393.25" width="23.5" height="23.5" as="geometry" />
        </mxCell>
        <mxCell id="rJXVXiWx6eMoC_5AmnGX-20" value="&lt;font style=&quot;font-size: 8px;&quot;&gt;192.168.1.155&lt;/font&gt;" style="sketch=0;pointerEvents=1;shadow=0;dashed=0;html=1;strokeColor=none;fillColor=#434445;aspect=fixed;labelPosition=center;verticalLabelPosition=bottom;verticalAlign=top;align=left;outlineConnect=0;shape=mxgraph.vvd.wi_fi;" parent="1" vertex="1">
          <mxGeometry x="370" y="373.25" width="23.5" height="23.5" as="geometry" />
        </mxCell>
        <mxCell id="PfqUwRSOz3h14KbHQ9jz-1" value="Home router&lt;div&gt;192.168.1.1&lt;/div&gt;" style="verticalLabelPosition=bottom;sketch=0;aspect=fixed;html=1;verticalAlign=top;strokeColor=none;align=center;outlineConnect=0;shape=mxgraph.citrix.router;" vertex="1" parent="1">
          <mxGeometry x="663.3499999999999" y="226.75" width="55" height="36.5" as="geometry" />
        </mxCell>
        <mxCell id="PfqUwRSOz3h14KbHQ9jz-2" value="" style="verticalLabelPosition=bottom;html=1;verticalAlign=top;align=center;strokeColor=none;fillColor=#00BEF2;shape=mxgraph.azure.mobile;pointerEvents=1;" vertex="1" parent="1">
          <mxGeometry x="745.8499999999999" y="356.75" width="35" height="50" as="geometry" />
        </mxCell>
        <mxCell id="PfqUwRSOz3h14KbHQ9jz-3" value="" style="image;points=[];aspect=fixed;html=1;align=center;shadow=0;dashed=0;image=img/lib/allied_telesis/computer_and_terminals/Laptop.svg;" vertex="1" parent="1">
          <mxGeometry x="580" y="393.25" width="51.86" height="52.6" as="geometry" />
        </mxCell>
        <mxCell id="PfqUwRSOz3h14KbHQ9jz-5" value="" style="image;html=1;image=img/lib/clip_art/computers/Server_Tower_128x128.png" vertex="1" parent="1">
          <mxGeometry x="506.5" y="303.25" width="50" height="70" as="geometry" />
        </mxCell>
        <mxCell id="PfqUwRSOz3h14KbHQ9jz-6" style="edgeStyle=orthogonalEdgeStyle;rounded=0;orthogonalLoop=1;jettySize=auto;html=1;endArrow=none;endFill=0;" edge="1" parent="1" source="PfqUwRSOz3h14KbHQ9jz-7" target="PfqUwRSOz3h14KbHQ9jz-1">
          <mxGeometry relative="1" as="geometry" />
        </mxCell>
        <mxCell id="PfqUwRSOz3h14KbHQ9jz-7" value="&lt;span&gt;&lt;font style=&quot;font-size: 8px;&quot;&gt;192.168.1.21&lt;/font&gt;&lt;/span&gt;" style="sketch=0;pointerEvents=1;shadow=0;dashed=0;html=1;strokeColor=none;fillColor=#434445;aspect=fixed;labelPosition=center;verticalLabelPosition=bottom;verticalAlign=top;align=center;outlineConnect=0;shape=mxgraph.vvd.ethernet_port;direction=south;" vertex="1" parent="1">
          <mxGeometry x="558.25" y="346.75" width="20" height="20" as="geometry" />
        </mxCell>
        <mxCell id="PfqUwRSOz3h14KbHQ9jz-8" value="Internet" style="ellipse;shape=cloud;whiteSpace=wrap;html=1;" vertex="1" parent="1">
          <mxGeometry x="600.85" y="66.75" width="180" height="130" as="geometry" />
        </mxCell>
        <mxCell id="PfqUwRSOz3h14KbHQ9jz-9" style="edgeStyle=orthogonalEdgeStyle;rounded=0;orthogonalLoop=1;jettySize=auto;html=1;entryX=0.499;entryY=0.955;entryDx=0;entryDy=0;entryPerimeter=0;startArrow=classic;startFill=1;endArrow=classic;endFill=1;" edge="1" parent="1" source="PfqUwRSOz3h14KbHQ9jz-1" target="PfqUwRSOz3h14KbHQ9jz-8">
          <mxGeometry relative="1" as="geometry" />
        </mxCell>
        <mxCell id="PfqUwRSOz3h14KbHQ9jz-10" value="&lt;div&gt;&lt;font style=&quot;font-size: 8px;&quot;&gt;192.168.1.200&lt;/font&gt;&lt;/div&gt;" style="sketch=0;pointerEvents=1;shadow=0;dashed=0;html=1;strokeColor=none;fillColor=#434445;aspect=fixed;labelPosition=center;verticalLabelPosition=bottom;verticalAlign=top;align=left;outlineConnect=0;shape=mxgraph.vvd.wi_fi;" vertex="1" parent="1">
          <mxGeometry x="556.5" y="296.75" width="23.5" height="23.5" as="geometry" />
        </mxCell>
        <mxCell id="PfqUwRSOz3h14KbHQ9jz-11" value="&lt;font style=&quot;font-size: 8px;&quot;&gt;192.168.1.240&lt;/font&gt;" style="sketch=0;pointerEvents=1;shadow=0;dashed=0;html=1;strokeColor=none;fillColor=#434445;aspect=fixed;labelPosition=center;verticalLabelPosition=bottom;verticalAlign=top;align=left;outlineConnect=0;shape=mxgraph.vvd.wi_fi;" vertex="1" parent="1">
          <mxGeometry x="631.86" y="370" width="23.5" height="23.5" as="geometry" />
        </mxCell>
        <mxCell id="PfqUwRSOz3h14KbHQ9jz-12" value="&lt;font style=&quot;font-size: 8px;&quot;&gt;192.168.1.17&lt;/font&gt;" style="sketch=0;pointerEvents=1;shadow=0;dashed=0;html=1;strokeColor=none;fillColor=#434445;aspect=fixed;labelPosition=center;verticalLabelPosition=bottom;verticalAlign=top;align=right;outlineConnect=0;shape=mxgraph.vvd.wi_fi;" vertex="1" parent="1">
          <mxGeometry x="718.35" y="330.65" width="23.5" height="23.5" as="geometry" />
        </mxCell>
        <mxCell id="PfqUwRSOz3h14KbHQ9jz-15" value="&lt;b&gt;Public IP Address: 37.223.16.117&lt;/b&gt;" style="text;html=1;align=center;verticalAlign=middle;whiteSpace=wrap;rounded=0;fillColor=#ffe6cc;strokeColor=#d79b00;" vertex="1" parent="1">
          <mxGeometry x="284.35" y="240" width="140" height="30" as="geometry" />
        </mxCell>
        <mxCell id="PfqUwRSOz3h14KbHQ9jz-16" value="&lt;b&gt;Public IP Address: 10.45.233.21&lt;/b&gt;" style="text;html=1;align=center;verticalAlign=middle;whiteSpace=wrap;rounded=0;fillColor=#ffe6cc;strokeColor=#d79b00;" vertex="1" parent="1">
          <mxGeometry x="523.35" y="230" width="140" height="30" as="geometry" />
        </mxCell>
        <mxCell id="PfqUwRSOz3h14KbHQ9jz-18" value="" style="ellipse;shape=cloud;whiteSpace=wrap;html=1;fillColor=none;strokeColor=default;dashed=1;" vertex="1" parent="1">
          <mxGeometry x="-20" y="520" width="478.15" height="435.8" as="geometry" />
        </mxCell>
        <mxCell id="PfqUwRSOz3h14KbHQ9jz-19" value="" style="ellipse;shape=cloud;whiteSpace=wrap;html=1;fillColor=none;strokeColor=default;dashed=1;" vertex="1" parent="1">
          <mxGeometry x="458.15000000000003" y="520" width="478.15" height="435.8" as="geometry" />
        </mxCell>
      </root>
    </mxGraphModel>
  </diagram>
</mxfile>
